<?xml version="1.0"?>
<svg xmlns="http://www.w3.org/2000/svg" id="Minimize" viewBox="0 0 32 32" height="20px" width="20px">
    <path d="M11,4c-.55,0-1,.45-1,1v4.5c0,.28-.22.5-.5.5h-4.5c-.55,0-1,.45-1,1s.45,1,1,1h4.5c1.38,0,2.5-1.12,2.5-2.5v-4.5c0-.55-.45-1-1-1Z"/>
    <path d="M22.5,12h4.5c.55,0,1-.45,1-1s-.45-1-1-1h-4.5c-.28,0-.5-.22-.5-.5v-4.5c0-.55-.45-1-1-1s-1,.45-1,1v4.5c0,1.38,1.12,2.5,2.5,2.5Z"/>
    <path d="M9.5,20h-4.5c-.55,0-1,.45-1,1s.45,1,1,1h4.5c.28,0,.5.22.5.5v4.5c0,.55.45,1,1,1s1-.45,1-1v-4.5c0-1.38-1.12-2.5-2.5-2.5Z"/>
    <path d="M27,20h-4.5c-1.38,0-2.5,1.12-2.5,2.5v4.5c0,.55.45,1,1,1s1-.45,1-1v-4.5c0-.28.22-.5.5-.5h4.5c.55,0,1-.45,1-1s-.45-1-1-1Z"/>
</svg>