<?xml version="1.0" encoding="UTF-8"?>
<svg version="1.1" xmlns="http://www.w3.org/2000/svg" viewBox="0 0 512 512" width="20" height="20">
<path d="M0 0 C0.7927533 0.00182281 1.58550659 0.00364563 2.40228271 0.00552368 C14.26968055 0.05144019 25.73037879 0.51472654 37.3125 3.3125 C38.03920898 3.47878906 38.76591797 3.64507812 39.51464844 3.81640625 C53.16277614 7.00273956 53.16277614 7.00273956 59.09754944 10.30818176 C74.26310189 18.52320892 90.61937409 17.36023671 107.34474444 17.16092277 C111.6285036 17.11988166 115.91214969 17.12906737 120.19606018 17.13374329 C129.20880352 17.13633273 138.22080053 17.090901 147.2333374 17.03393555 C160.81780627 16.94827609 174.40229178 16.89841054 187.98703343 16.89838725 C193.06292356 16.89652814 198.13776466 16.86852658 203.21340454 16.81896436 C206.37701971 16.79278135 209.54044372 16.78731187 212.70415688 16.7869072 C214.15855148 16.78241591 215.61295166 16.76941366 217.06717682 16.74676323 C227.74251257 16.58659431 236.52837187 18.11750082 245.3125 24.48828125 C252.32930066 31.98474602 256.42898414 38.78242617 256.44672108 49.22722054 C256.45117892 50.4447228 256.45563676 51.66222506 256.46022969 52.91662133 C256.4601404 54.26961971 256.45995055 55.6226181 256.45967102 56.97561646 C256.46297069 58.41149809 256.46669648 59.84737879 256.4708125 61.28325832 C256.48082889 65.23406545 256.48454871 69.1848574 256.48720181 73.13567543 C256.49110593 77.39487478 256.50068419 81.65406211 256.50941467 85.91325378 C256.52917594 96.20167315 256.53924482 106.49009349 256.54814246 116.77852708 C256.55252587 121.62373342 256.55789254 126.46893866 256.56313133 131.31414413 C256.58014319 147.42101121 256.59463738 163.5278776 256.60188007 179.63475227 C256.60378996 183.81444423 256.6057103 187.99413619 256.60766602 192.17382812 C256.60814976 193.21266757 256.6086335 194.25150701 256.6091319 195.32182644 C256.61743225 212.15045216 256.64276947 228.97900679 256.67524669 245.80760147 C256.70831946 263.08566742 256.72632903 280.36369726 256.72952431 297.64179504 C256.73168919 307.34260266 256.74043469 317.04330663 256.76598549 326.7440834 C256.78769543 335.00568884 256.79574144 343.26716543 256.78601871 351.52879615 C256.78147488 355.74271802 256.78336497 359.95637408 256.80278015 364.17025948 C256.82041885 368.03199052 256.81940865 371.89326198 256.80388286 375.75499795 C256.80150784 377.14805404 256.80582491 378.541142 256.81771151 379.9341494 C256.90660305 391.04441514 255.07013318 400.91697125 247.3125 409.3125 C236.39161518 419.27046809 224.61689016 419.45537283 210.48266602 419.51782227 C209.08263366 419.52741318 207.68260412 419.53742395 206.28257751 419.54782104 C202.49800691 419.57474481 198.71342399 419.5958218 194.92881131 419.61582303 C190.96764996 419.63776031 187.00652601 419.66511096 183.0453949 419.69187927 C175.55162985 419.74170184 168.05784392 419.78667918 160.56403822 419.82990164 C152.02955167 419.87936346 143.49510266 419.93424829 134.96065247 419.98958123 C117.41130306 420.10324097 99.86191874 420.21011458 82.3125 420.3125 C82.61542969 421.21081543 82.91835938 422.10913086 83.23046875 423.03466797 C84.35103549 426.36232019 85.46891127 429.69085096 86.58496094 433.02001953 C87.06890691 434.46178877 87.55392839 435.90319746 88.04003906 437.34423828 C88.73784712 439.41345279 89.43179998 441.48392543 90.125 443.5546875 C90.54394531 444.8010498 90.96289062 446.04741211 91.39453125 447.33154297 C92.3125 450.3125 92.3125 450.3125 92.3125 452.3125 C93.02792969 452.29678955 93.74335938 452.2810791 94.48046875 452.26489258 C97.75773039 452.20209253 101.0348649 452.16336697 104.3125 452.125 C106.00052734 452.08729492 106.00052734 452.08729492 107.72265625 452.04882812 C116.26460242 451.97389877 123.27327614 452.75344146 129.9296875 458.71875 C137.02535966 466.89681283 137.54323689 475.12698709 137.625 485.5 C137.65400391 486.70720703 137.68300781 487.91441406 137.71289062 489.15820312 C137.76423769 496.38234019 137.28955203 501.21290472 133.3125 507.3125 C128.35514215 511.91576086 125.11295224 512.46213019 118.5440979 512.46640015 C117.73258439 512.4707824 116.92107089 512.47516465 116.08496606 512.4796797 C113.35042431 512.49309434 110.6159148 512.49925248 107.88134766 512.50537109 C105.92697503 512.51326983 103.97260387 512.52153864 102.01823425 512.53015137 C95.58769122 512.55639336 89.15714159 512.5716791 82.7265625 512.5859375 C80.5158017 512.59129589 78.30504095 512.5966734 76.09428024 512.60206985 C66.90164314 512.62369992 57.70900782 512.64243865 48.5163517 512.65369225 C35.32539151 512.66994495 22.13472526 512.70315345 8.94387591 512.76009309 C-0.32239238 512.79873395 -9.58858184 512.81831787 -18.85492861 512.82361281 C-24.39399305 512.82727371 -29.93274414 512.83937361 -35.47172165 512.87171555 C-40.68054965 512.90169389 -45.88887302 512.90814465 -51.09776878 512.89633179 C-53.01182748 512.89611021 -54.92590892 512.90448469 -56.83988762 512.92198563 C-59.4489163 512.94454767 -62.05609487 512.93644381 -64.66513062 512.92050171 C-65.42641372 512.9343838 -66.18769683 512.94826588 -66.97204912 512.96256864 C-70.77698186 512.90509757 -72.37235344 512.6086352 -75.18889809 509.96199989 C-76.6875 507.3125 -76.6875 507.3125 -76.6875 504.3125 C-79.29510846 504.3455077 -81.89412846 504.4126148 -84.5 504.5 C-85.23798828 504.50580078 -85.97597656 504.51160156 -86.73632812 504.51757812 C-89.18314662 504.56566515 -89.18314662 504.56566515 -92.6875 505.3125 C-94.65788956 507.63714736 -94.65788956 507.63714736 -95.6875 510.3125 C-99.51340203 514.13840203 -106.27896932 512.68235177 -111.4375 512.6875 C-112.71367187 512.71199219 -113.98984375 512.73648438 -115.3046875 512.76171875 C-127.02376254 512.79841731 -127.02376254 512.79841731 -131.6875 508.3125 C-137.20105033 501.01077119 -136.93000091 495.03538553 -137 486.1875 C-137.04350586 484.38925781 -137.04350586 484.38925781 -137.08789062 482.5546875 C-137.15049975 473.7701456 -135.6177947 467.91724882 -130.9375 460.5625 C-126.14142676 455.76642676 -120.79782154 452.48224241 -113.93847656 452.19897461 C-112.91206055 452.20421143 -111.88564453 452.20944824 -110.828125 452.21484375 C-109.71308594 452.21806641 -108.59804687 452.22128906 -107.44921875 452.22460938 C-106.29035156 452.23298828 -105.13148438 452.24136719 -103.9375 452.25 C-102.76316406 452.25451172 -101.58882812 452.25902344 -100.37890625 452.26367188 C-97.48171928 452.27544906 -94.58463546 452.29189674 -91.6875 452.3125 C-91.48447266 451.48685547 -91.48447266 451.48685547 -91.27734375 450.64453125 C-89.50176388 443.78675272 -87.32377214 437.0992689 -85.06640625 430.38671875 C-84.74128052 429.41585327 -84.41615479 428.44498779 -84.08117676 427.44470215 C-83.28465452 425.06683824 -82.48672836 422.68945542 -81.6875 420.3125 C-82.77141809 420.30753478 -82.77141809 420.30753478 -83.87723351 420.30246925 C-101.48918551 420.22112166 -119.10104838 420.12899099 -136.71288109 420.02497292 C-145.22995599 419.97492775 -153.74702165 419.92848413 -162.26416016 419.890625 C-169.69080345 419.85760392 -177.11737333 419.81771737 -184.54393542 419.76970994 C-188.47341292 419.74454516 -192.40284235 419.72273475 -196.33237839 419.70915604 C-200.03747754 419.69624414 -203.74241098 419.67409325 -207.44741821 419.64511681 C-209.44217723 419.63184604 -211.43699284 419.62813727 -213.43179321 419.62480164 C-225.68224747 419.51164372 -237.51428153 418.24431798 -246.6875 409.3125 C-254.53164445 399.20716085 -256.13455569 390.73444768 -256.07518005 378.16836548 C-256.07935664 376.72902842 -256.08483593 375.28969465 -256.09149987 373.85036695 C-256.10593081 369.90853261 -256.10171715 365.96690778 -256.09433305 362.02506208 C-256.08959783 357.7686464 -256.10211439 353.51227581 -256.11235046 349.25587463 C-256.12953705 340.92228737 -256.13037874 332.58877551 -256.12513756 324.25517513 C-256.12109425 317.48055794 -256.12254134 310.70596302 -256.12788582 303.93134689 C-256.12863424 302.96671697 -256.12938266 302.00208704 -256.13015376 301.00822591 C-256.13168526 299.04850249 -256.13322361 297.08877907 -256.13476873 295.12905566 C-256.14849335 276.75544602 -256.14305642 258.38187898 -256.13158352 240.00827031 C-256.12165193 223.20575667 -256.13459061 206.40335315 -256.15851771 189.6008565 C-256.18291096 172.34073407 -256.19251598 155.08066294 -256.18586498 137.82052362 C-256.18237317 128.13320169 -256.1846023 118.44596444 -256.20211601 108.75865555 C-256.21684083 100.51177167 -256.2174698 92.26503212 -256.2000451 84.01815106 C-256.1915349 79.81231279 -256.18938595 75.60673231 -256.20469666 71.40090752 C-256.21855332 67.54672065 -256.21376837 63.69301219 -256.19445742 59.83885293 C-256.19070006 58.44861516 -256.19361183 57.05833899 -256.20406907 55.66813548 C-256.28464371 44.13112208 -254.47884024 35.48172456 -246.3984375 26.9921875 C-238.23083309 18.97376308 -230.06480849 16.86070168 -218.75439453 16.84022522 C-217.34740822 16.85769104 -215.94042586 16.87547814 -214.53344727 16.89355469 C-213.02587802 16.89792581 -211.51830232 16.90041068 -210.01072693 16.90116882 C-206.78045469 16.90613204 -203.55054651 16.92298434 -200.32037544 16.94890594 C-195.19373825 16.9886289 -190.06742789 16.99316593 -184.94065857 16.99176025 C-170.3675506 16.99302549 -155.79478762 17.04045439 -141.22192383 17.12353516 C-133.16038211 17.1691842 -125.09928234 17.18549853 -117.03761905 17.17155957 C-112.78501365 17.16564083 -108.53366297 17.17471408 -104.28128242 17.22127533 C-79.4764984 17.61304356 -79.4764984 17.61304356 -56.41151428 9.2128334 C-52.19867165 7.01275711 -47.46912449 6.04117324 -42.875 4.9375 C-41.98103516 4.70417969 -41.08707031 4.47085937 -40.16601562 4.23046875 C-26.81326866 0.870929 -13.6969268 -0.06545231 0 0 Z " fill="#262627" transform="translate(255.6875,-0.3125)"/>
<path d="M0 0 C1.03202545 -0.00137466 2.0640509 -0.00274933 3.12734985 -0.00416565 C4.25375885 -0.00057037 5.38016785 0.0030249 6.54071045 0.00672913 C7.73123016 0.0065831 8.92174988 0.00643707 10.14834595 0.00628662 C13.40835287 0.00686366 16.6683168 0.01187687 19.92831516 0.01886058 C23.33693314 0.02511443 26.74555197 0.02569953 30.1541748 0.02688599 C36.60683897 0.0299933 43.05948619 0.03819863 49.5121429 0.04823548 C56.859131 0.05941521 64.20611992 0.06491176 71.55311441 0.06993091 C86.6645491 0.08038173 101.77596792 0.09796958 116.88739014 0.12025452 C114.06727701 2.9495024 111.24803389 5.75238601 108.28582764 8.43275452 C89.78075835 25.34216336 75.2270658 44.15564444 64.88739014 67.12025452 C64.57962646 67.79378967 64.27186279 68.46732483 63.95477295 69.16127014 C48.98601912 102.28960933 44.45732672 142.95864335 54.88739014 178.12025452 C55.21352295 179.36291077 55.53965576 180.60556702 55.87567139 181.88587952 C67.18756632 224.15054532 94.01687862 259.02679539 130.88739014 282.12025452 C132.34531982 283.05804749 132.34531982 283.05804749 133.83270264 284.01478577 C166.41837117 304.11987095 207.32898949 311.22823684 244.88739014 305.12025452 C245.55222412 305.0131012 246.21705811 304.90594788 246.90203857 304.79554749 C278.77246185 299.55500637 307.50467975 286.24944374 331.88739014 265.12025452 C333.14809326 264.0432428 333.14809326 264.0432428 334.43426514 262.94447327 C354.43834827 245.45643165 368.13520764 223.72922806 378.01043701 199.25868225 C378.80612055 197.31842833 379.64888542 195.39764869 380.49676514 193.47962952 C395.96831392 156.10453975 392.65401743 109.62792553 377.65960693 72.82435608 C366.30102684 46.05107812 349.00296335 22.13135538 326.14520264 4.03822327 C323.88739014 2.12025452 323.88739014 2.12025452 322.88739014 0.12025452 C338.82094958 0.05013381 354.75446728 -0.00274862 370.68814278 -0.035182 C378.08664232 -0.05064252 385.48504593 -0.07171635 392.88348389 -0.10606384 C399.33292515 -0.13599128 405.78229691 -0.15532642 412.23180568 -0.16201097 C415.64592841 -0.1659176 419.05985235 -0.17508146 422.47391129 -0.19693565 C426.28780192 -0.21868542 430.10127958 -0.22171334 433.91522217 -0.22032166 C435.04379135 -0.23110748 436.17236053 -0.24189331 437.33512878 -0.25300598 C443.90961567 -0.22701535 448.67205726 0.21499567 453.75067139 4.80384827 C454.22891357 5.38263733 454.70715576 5.96142639 455.19989014 6.55775452 C455.69102295 7.13396545 456.18215576 7.71017639 456.68817139 8.30384827 C459.00296065 11.8099623 459.01209922 15.34055246 459.01043797 19.45383072 C459.01242884 20.5419883 459.01441971 21.63014587 459.01647091 22.75127792 C459.01355824 23.94547977 459.01064558 25.13968163 459.00764465 26.37007141 C459.00850067 27.63632355 459.00935669 28.90257568 459.01023865 30.2071991 C459.01248472 33.73119811 459.00846392 37.25516682 459.00346287 40.77916199 C458.99910269 44.63420638 459.00055705 48.48924932 459.00128078 52.3442955 C459.00181292 59.83091059 458.99719099 67.3175137 458.99077946 74.80412571 C458.98358639 83.46207478 458.98278509 92.12001664 458.98199463 100.77796936 C458.97674184 123.64206631 458.96278076 146.50616059 458.94989014 169.37025452 C458.92926514 220.43775452 458.90864014 271.50525452 458.88739014 324.12025452 C301.14739014 324.12025452 143.40739014 324.12025452 -19.11260986 324.12025452 C-19.19510986 272.76400452 -19.27760986 221.40775452 -19.36260986 168.49525452 C-19.39902588 152.26128479 -19.43544189 136.02731506 -19.47296143 119.30140686 C-19.49102783 99.52381897 -19.49102783 99.52381897 -19.49438477 90.27397156 C-19.49812119 83.79417647 -19.51282023 77.31451868 -19.53491211 70.83476257 C-19.56034179 63.36497653 -19.5719611 55.89532259 -19.56638967 48.42549292 C-19.56397593 44.60285498 -19.56785012 40.78051242 -19.58947039 36.95792842 C-19.61246671 32.86725638 -19.60460419 28.77722989 -19.59362793 24.68650818 C-19.60527859 23.49035196 -19.61692924 22.29419575 -19.62893295 21.06179237 C-19.57442781 13.53907407 -18.7519246 9.95063327 -13.55010986 4.47572327 C-8.91907839 0.7130102 -5.84861635 -0.0060171 0 0 Z " fill="#34466C" transform="translate(36.11260986328125,33.87974548339844)"/>
<path d="M0 0 C4.51073704 3.46866872 8.75848636 7.21068552 13 11 C13.82113281 11.68835937 14.64226562 12.37671875 15.48828125 13.0859375 C21.45047824 18.13166552 26.22339641 23.83851307 31 30 C31.7425 30.92683594 32.485 31.85367188 33.25 32.80859375 C53.53436417 58.76271944 63.18888994 89.77377319 63.18530273 122.45678711 C63.18747887 124.66605213 63.20566866 126.87480782 63.22460938 129.08398438 C63.28362101 143.10644178 61.69724441 156.33149326 57.4375 169.75 C57.08671387 170.86544189 56.73592773 171.98088379 56.37451172 173.13012695 C51.18450576 189.12328053 43.97607952 203.47387416 34 217 C33.31679688 217.92683594 32.63359375 218.85367188 31.9296875 219.80859375 C6.45342862 252.40464361 -29.60729111 272.601409 -70.44165039 278.60742188 C-76.86862594 279.31648374 -83.29085557 279.34565371 -89.75 279.3125 C-90.45177368 279.31134186 -91.15354736 279.31018372 -91.87658691 279.30899048 C-102.53962652 279.27423224 -112.61552624 278.58717659 -123 276 C-124.57587891 275.65775391 -124.57587891 275.65775391 -126.18359375 275.30859375 C-134.02313321 273.52456331 -141.4814467 270.81389643 -149 268 C-148.58460168 266.4579911 -148.16756168 264.91642449 -147.75 263.375 C-147.48058594 262.37210937 -147.21117187 261.36921875 -146.93359375 260.3359375 C-146.29651473 258.05951287 -145.62017072 255.79380378 -144.91015625 253.5390625 C-141.01844613 240.99141349 -140.7942902 230.7660677 -146.04296875 218.578125 C-154.71943318 202.23967506 -175.33547107 185.36764189 -192.625 179.125 C-206.84124668 175.47129174 -218.75844736 178.85050731 -232 184 C-234.8108353 177.71081135 -236.85254036 171.33273279 -238.625 164.6875 C-238.83084717 163.93041748 -239.03669434 163.17333496 -239.2487793 162.39331055 C-242.37112536 150.38068792 -243.40089945 138.50188159 -243.375 126.125 C-243.3764502 125.41320587 -243.37790039 124.70141174 -243.37939453 123.9680481 C-243.37649393 111.0021901 -241.86248754 98.66395157 -239 86 C-238.01 86 -237.02 86 -236 86 C-235.7525 86.61875 -235.505 87.2375 -235.25 87.875 C-233.74195877 90.43867008 -232.62412912 90.704484 -230 92 C-228.66895388 93.06046385 -227.35778866 94.14614555 -226.0625 95.25 C-215.86030225 103.32744251 -204.02236868 107.35554696 -191.125 107.375 C-190.27808594 107.39949219 -189.43117187 107.42398438 -188.55859375 107.44921875 C-181.65819794 107.48092042 -175.38518323 106.06074756 -170.14550781 101.32324219 C-163.84355657 94.54368642 -162.42522199 88.25626883 -162.64453125 79.16015625 C-163.29041307 73.41819585 -165.6001177 69.67208163 -169.25 65.3125 C-171.36655342 62.51562583 -171.44653827 61.43211389 -171 58 C-169.5234375 56.1484375 -169.5234375 56.1484375 -167.375 54.375 C-166.54871094 53.68535156 -165.72242188 52.99570313 -164.87109375 52.28515625 C-160.53779383 48.83620325 -156.19506062 45.40129061 -151.82421875 42 C-147.06103759 38.28143033 -142.38147003 34.46138752 -137.70117188 30.6394043 C-133.97442013 27.5975025 -130.22252214 24.59443315 -126.4375 21.625 C-124.95263447 20.42367663 -123.47286742 19.21600371 -122 18 C-121.35675781 17.47792969 -120.71351563 16.95585938 -120.05078125 16.41796875 C-113.5157404 10.59171758 -109.17511608 1.66648111 -108 -7 C-107.90809864 -9.31104879 -107.86997748 -11.62463011 -107.875 -13.9375 C-107.87242187 -15.12214844 -107.86984375 -16.30679687 -107.8671875 -17.52734375 C-107.9914085 -20.77535743 -108.38674303 -23.81203717 -109 -27 C-72.57230134 -34.61725908 -29.54505082 -21.41541692 0 0 Z " fill="#4580D5" transform="translate(346,45)"/>
<path d="M0 0 C1.72329647 0.01151784 3.44660549 0.02129512 5.16992188 0.02929688 C19.11735331 0.12734002 32.65207064 1.02174133 46.36352539 3.67675781 C48.38097865 4.06364653 50.40185716 4.42662683 52.42382812 4.7890625 C62.06070051 6.58801995 71.56957263 8.87737792 78.125 16.6875 C79.05119141 17.75097656 79.05119141 17.75097656 79.99609375 18.8359375 C85.12595084 26.34709084 85.246336 33.45321373 85.2434082 42.28051758 C85.24993624 44.47853044 85.3043954 46.67193172 85.36132812 48.86914062 C85.47845762 58.32241954 83.78673858 65.21346008 78.6875 73.3125 C77.83514771 74.73236206 77.83514771 74.73236206 76.96557617 76.1809082 C75.18308002 79.10570649 73.34879635 81.99172099 71.5 84.875 C57.96746139 105.05898576 57.96746139 105.05898576 48.6875 127.3125 C48.26404297 128.79169922 48.26404297 128.79169922 47.83203125 130.30078125 C45.86148427 137.87767315 45.33503115 144.99722549 45.2890625 152.78125 C44.53744824 157.19332332 43.22592009 158.64484332 39.6875 161.3125 C36.57021504 162.20615673 33.84349612 162.01120083 30.6875 161.3125 C22.64171533 155.38402708 22.44893864 138.30431694 20.6875 128.9375 C19.22024042 121.17707235 17.74082794 113.4186994 16.1640625 105.6796875 C15.83269287 104.03782471 15.83269287 104.03782471 15.49462891 102.36279297 C13.33781163 94.2117721 9.11553841 88.8835964 2.03125 84.46875 C-3.25759572 81.85958611 -8.08701827 81.04715529 -13.9375 80.5625 C-24.0130952 79.50748212 -33.16039906 75.63488906 -40.3125 68.3125 C-42.57584187 65.4433141 -44.49134806 62.47905351 -46.3125 59.3125 C-46.73015625 58.60738281 -47.1478125 57.90226562 -47.578125 57.17578125 C-51.89198398 48.47211508 -51.85031631 36.74886603 -49.6171875 27.40234375 C-48.6902715 25.19410269 -47.62336004 23.31371893 -46.3125 21.3125 C-45.71115234 20.20068359 -45.71115234 20.20068359 -45.09765625 19.06640625 C-41.249386 12.45184318 -35.90542035 8.10424114 -29.3125 4.3125 C-28.68255127 3.94697021 -28.05260254 3.58144043 -27.40356445 3.20483398 C-18.75438212 -1.04869251 -9.38757631 -0.15896261 0 0 Z " fill="#40E778" transform="translate(273.3125,102.6875)"/>
<path d="M0 0 C157.74 0 315.48 0 478 0 C478 15.03225806 478 15.03225806 475 19 C469.56877361 24.30550356 466.30813146 26.14990815 458.68037796 26.13422108 C457.9133462 26.13657331 457.14631444 26.13892554 456.35603929 26.14134905 C453.75876893 26.14806166 451.16154834 26.14758015 448.56427002 26.14717102 C446.69415992 26.15046824 444.82405053 26.1541935 442.95394206 26.1583125 C437.79372886 26.16835676 432.6335273 26.17205318 427.4733057 26.17470181 C421.91625026 26.17859767 416.35920408 26.18817647 410.80215454 26.19691467 C397.37162444 26.21669913 383.94109356 26.22674766 370.51055253 26.23564246 C364.19144969 26.240022 357.87234771 26.24538966 351.55324554 26.25063133 C330.55678617 26.26764536 309.56032696 26.28216562 288.56386185 26.28938007 C287.20556296 26.28985483 285.84726408 26.29033072 284.4889652 26.29080774 C283.8153597 26.29104411 283.14175421 26.29128049 282.44773642 26.29152403 C279.03481907 26.29272525 275.62190172 26.29394069 272.20898438 26.29516602 C271.53167612 26.29540617 270.85436786 26.29564632 270.15653512 26.29589374 C248.19199256 26.3037883 226.22750398 26.32722279 204.26298499 26.35972196 C181.05004032 26.39400573 157.83712594 26.41372871 134.62415195 26.41702431 C121.96679994 26.41919265 109.30952725 26.4279885 96.65219879 26.45348549 C85.87507165 26.47514438 75.09804309 26.48326666 64.32089666 26.47351871 C58.81943848 26.46896007 53.31818391 26.47095081 47.81675339 26.49028015 C42.78325215 26.50781315 37.75010451 26.50699473 32.71660003 26.49138286 C30.89287311 26.48899172 29.06912234 26.49340767 27.24543205 26.50521151 C24.77085026 26.52023978 22.29753616 26.51072172 19.8229866 26.49498463 C19.11094755 26.50520683 18.3989085 26.51542904 17.6652925 26.52596101 C11.90775902 26.44576323 8.41671246 24.34782754 4.35546875 20.40234375 C-1.44319306 13.12977459 0 10.96430401 0 0 Z " fill="#D9E2E6" transform="translate(17,375)"/>
<path d="M0 0 C0.9206424 -0.00965286 1.84128479 -0.01930573 2.78982544 -0.0292511 C5.76389027 -0.05051827 8.7368359 -0.04430689 11.7109375 -0.03125 C12.72949829 -0.03015228 13.74805908 -0.02905457 14.79748535 -0.02792358 C32.98960654 0.02824255 50.29934541 1.58114783 68.0859375 5.46875 C69.04918945 5.67693359 70.01244141 5.88511719 71.00488281 6.09960938 C84.67379492 9.1747414 96.23055878 14.14172214 105.0859375 25.46875 C112.06785261 36.69419349 113.34043883 46.58910481 113.43603516 59.51269531 C113.45249299 61.13588907 113.47964669 62.75901347 113.51806641 64.38183594 C113.88717468 80.10263865 110.0511024 91.12617895 101.5859375 104.46875 C100.98080322 105.44569824 100.37566895 106.42264648 99.75219727 107.42919922 C96.69021807 112.36413208 93.57912987 117.26701977 90.45703125 122.1640625 C80.82025814 137.34883078 74.78252516 150.35346447 73.7109375 168.59375 C73.03650208 177.19280154 70.5136114 184.16937013 63.984375 189.99609375 C56.73210851 195.6218231 50.22924699 196.52374725 41.0859375 195.46875 C33.4567813 193.77338196 28.30741753 190.04171758 24.0859375 183.46875 C20.99235035 177.24771975 19.76969718 170.90596424 18.45703125 164.11328125 C18.22186295 162.93408615 17.98669464 161.75489105 17.74440002 160.53996277 C16.99680095 156.78845796 16.25918826 153.03509514 15.5234375 149.28125 C14.78343785 145.51684128 14.04115012 141.75295404 13.29176331 137.99040222 C12.82642253 135.6532336 12.36654031 133.31497006 11.91270447 130.97554016 C11.70231033 129.91731552 11.4919162 128.85909088 11.27514648 127.76879883 C11.0932225 126.83949051 10.91129852 125.91018219 10.72386169 124.95271301 C9.70660338 120.9916906 8.92997996 119.00824106 5.43359375 116.7734375 C1.69592621 115.31675027 -1.48325451 114.91892503 -5.4765625 114.59375 C-21.91072498 112.88509775 -35.29925122 105.07630467 -45.9140625 92.46875 C-56.04951969 78.54751927 -59.00549345 62.17540078 -56.44140625 45.37109375 C-53.58519482 33.48446533 -47.54604197 23.9787227 -38.9140625 15.46875 C-38.34945312 14.89382812 -37.78484375 14.31890625 -37.203125 13.7265625 C-27.29659585 4.39992774 -13.36151496 0.00670402 0 0 Z M-31.76171875 32.703125 C-37.08461104 40.28857348 -39.48750344 47.4642495 -39.4140625 56.71875 C-39.40906738 57.54995361 -39.40407227 58.38115723 -39.39892578 59.23754883 C-39.19616458 66.44396151 -37.58726244 72.21359255 -33.9140625 78.46875 C-33.47964844 79.21382812 -33.04523438 79.95890625 -32.59765625 80.7265625 C-27.46434689 88.41921413 -19.46246236 93.30402324 -10.9140625 96.46875 C-8.3217427 96.8677717 -5.71446499 97.17803771 -3.1015625 97.40625 C5.10913294 98.27277668 13.46794597 99.91102793 19.73022461 105.77416992 C26.90630613 114.74394875 28.7932441 125.70075613 30.7734375 136.65625 C31.05633558 138.14418667 31.3408358 139.63181963 31.62695312 141.11914062 C32.77038743 147.12050743 33.88804786 153.12017674 34.81884766 159.15869141 C34.94081009 159.92168045 35.06277252 160.68466949 35.18843079 161.47077942 C35.41706787 162.91291017 35.63394332 164.35697873 35.83634949 165.80302429 C36.64807553 170.85713171 38.42843034 174.81124284 42.0859375 178.46875 C44.04801474 178.78483345 44.04801474 178.78483345 46.3359375 178.84375 C47.48835938 178.91722656 47.48835938 178.91722656 48.6640625 178.9921875 C52.38267521 178.18848733 53.8061694 176.44998521 56.0859375 173.46875 C56.72197788 170.08267096 56.72197788 170.08267096 56.5859375 166.34375 C57.21404948 141.26601383 70.29708715 121.76421191 83.32519531 101.25488281 C85.72601014 97.45592291 88.07826059 93.62988702 90.3984375 89.78125 C91.07519531 88.66363281 91.75195312 87.54601562 92.44921875 86.39453125 C96.48895372 79.17314344 96.49121465 72.6430895 96.51147461 64.54174805 C96.52331344 62.30469311 96.57248151 60.07045331 96.62304688 57.83398438 C96.73650912 47.93571471 95.32648274 40.76543103 89.015625 32.8828125 C88.33757812 32.29242188 87.65953125 31.70203125 86.9609375 31.09375 C86.29835938 30.48789063 85.63578125 29.88203125 84.953125 29.2578125 C76.70937889 24.11389463 67.14813029 22.44506347 57.7109375 20.78125 C56.58171875 20.56919922 55.4525 20.35714844 54.2890625 20.13867188 C40.9385576 17.71755628 27.63705488 17.21401637 14.10180664 17.11865234 C12.38096653 17.10203217 10.66019712 17.07466295 8.93969727 17.03662109 C-7.32997856 16.6812193 -20.8195939 19.47078797 -31.76171875 32.703125 Z " fill="#262827" transform="translate(261.9140625,85.53125)"/>
<path d="M0 0 C0.92106385 -0.00297112 1.84212771 -0.00594224 2.79110259 -0.0090034 C5.89644459 -0.01771763 9.00174816 -0.01920094 12.10710144 -0.02069092 C14.32585737 -0.02531716 16.5446125 -0.03034156 18.7633667 -0.03573608 C24.80471333 -0.04888069 30.84604884 -0.05530905 36.88740754 -0.05974674 C40.65877257 -0.06267413 44.43013454 -0.06677829 48.20149803 -0.07125092 C58.64057282 -0.08336277 69.0796458 -0.09374383 79.5187273 -0.09712601 C80.18707939 -0.09734557 80.85543148 -0.09756514 81.54403667 -0.09779136 C82.21400142 -0.09800964 82.88396617 -0.09822791 83.57423288 -0.09845281 C84.93186875 -0.09889627 86.28950463 -0.09934284 87.6471405 -0.09979248 C88.32057689 -0.10001391 88.99401327 -0.10023534 89.68785682 -0.10046348 C100.59987936 -0.10441146 111.51183511 -0.12186483 122.42383186 -0.145152 C133.62347332 -0.16886035 144.82308243 -0.18106959 156.02275294 -0.18249393 C162.31237586 -0.18354376 168.60190463 -0.18948952 174.89150429 -0.20731354 C180.80692801 -0.22375048 186.72218637 -0.22597101 192.63762474 -0.21717453 C194.81087053 -0.21640181 196.98412505 -0.22077767 199.15734863 -0.23063278 C202.120316 -0.24328297 205.08269159 -0.23751313 208.0456543 -0.22705078 C208.90908017 -0.23510719 209.77250603 -0.24316359 210.66209632 -0.25146413 C215.32824743 -0.21283298 218.43000912 0.0940035 222.21330261 3.14044189 C223.43967832 5.5931933 223.32745576 7.19102 223.31095886 9.92950439 C223.30773621 10.87052002 223.30451355 11.81153564 223.30119324 12.78106689 C223.29281433 13.76591064 223.28443542 14.75075439 223.27580261 15.76544189 C223.27129089 16.75802002 223.26677917 17.75059814 223.26213074 18.77325439 C223.25032406 21.22904349 223.23385661 23.68471293 223.21330261 26.14044189 C221.74228907 26.14125905 221.74228907 26.14125905 220.24155807 26.1420927 C196.39781873 26.15647752 172.55426218 26.19945004 148.71062851 26.27253246 C137.18008552 26.30721008 125.64966243 26.33254162 114.11906433 26.33599854 C104.07092796 26.33903457 94.02300495 26.35947647 83.97495103 26.40096647 C78.65276195 26.42233087 73.33087648 26.43487939 68.0086441 26.42659569 C63.00165598 26.41907736 57.99528413 26.43478783 52.98840904 26.46850204 C51.14856724 26.47676214 49.30866446 26.47645385 47.4688282 26.46703911 C44.96029291 26.45547096 42.45379559 26.47445051 39.94541931 26.50120544 C39.21389955 26.49053219 38.48237979 26.47985893 37.72869277 26.46886224 C34.0041542 26.54320245 32.50601284 26.8559909 29.79254532 29.49289417 C28.10578441 32.10564933 28.10578441 32.10564933 27.21330261 35.14044189 C21.60330261 35.14044189 15.99330261 35.14044189 10.21330261 35.14044189 C9.55330261 32.83044189 8.89330261 30.52044189 8.21330261 28.14044189 C5.3316258 27.33391681 2.65298714 26.96529184 -0.33357239 26.82403564 C-1.17790833 26.78214111 -2.02224426 26.74024658 -2.89216614 26.69708252 C-3.76486145 26.65776611 -4.63755676 26.61844971 -5.53669739 26.57794189 C-6.86894348 26.5131665 -6.86894348 26.5131665 -8.22810364 26.44708252 C-10.41415702 26.34130574 -12.60031828 26.23921643 -14.78669739 26.14044189 C-14.90302252 22.72406236 -14.97398636 19.30819292 -15.03669739 15.89044189 C-15.07021301 14.92235596 -15.10372864 13.95427002 -15.13825989 12.95684814 C-15.23749074 5.76261123 -15.23749074 5.76261123 -12.89607239 2.53106689 C-8.63919207 -0.27532087 -4.97012143 -0.00494935 0 0 Z " fill="#DAE3E7" transform="translate(151.7866973876953,468.85955810546875)"/>
<path d="M0 0 C2.57278522 4.82397228 2.7422638 9.68044276 2 15 C-1.84908657 26.5472597 -10.87106839 32.82370888 -20.12109375 39.9765625 C-24.82004988 43.6187013 -29.4172597 47.3829228 -34.01489258 51.15161133 C-37.27673507 53.81714762 -40.55632745 56.44420973 -43.9140625 58.98828125 C-54.51508603 66.82059297 -54.51508603 66.82059297 -61 78 C-61.77603157 86.40203412 -60.47940295 92.91683338 -55.3125 99.625 C-53.5155506 102.028215 -52.9863363 103.06831852 -52.375 106.125 C-53 109 -53 109 -54.6875 111.875 C-60.52582087 115.62033792 -67.07322666 114.68831372 -73.71875 113.5234375 C-87.59550966 109.8785924 -96.4400145 100.05810098 -106 90 C-100.60344047 74.79422453 -91.68785148 61.01422153 -81 49 C-80.28328125 48.16339844 -79.5665625 47.32679687 -78.828125 46.46484375 C-61.14909648 26.18411422 -28.60521539 0 0 0 Z " fill="#40E678" transform="translate(220,22)"/>
<path d="M0 0 C0.91349685 0.00092179 1.82699369 0.00184359 2.76817226 0.00279331 C3.81290203 0.00141865 4.8576318 0.00004398 5.93402004 -0.00137234 C7.08991634 0.00222294 8.24581264 0.00581821 9.43673611 0.00952244 C10.64632488 0.00937641 11.85591366 0.00923038 13.10215664 0.00907993 C16.42846172 0.0096589 19.75470541 0.0146881 23.08099961 0.02165389 C26.55369751 0.02788805 30.02639615 0.02849128 33.49909878 0.0296793 C40.07936014 0.03279243 46.65960497 0.04100557 53.23985904 0.05102879 C60.72945933 0.06219049 68.21906039 0.06770052 75.70866692 0.07272422 C91.11925361 0.0831882 106.52982378 0.1007873 121.94039822 0.12304783 C122.58480703 1.72665724 123.2284863 3.33055983 123.87185574 4.93458652 C124.40964594 6.27429933 124.40964594 6.27429933 124.95830059 7.64107704 C126.70599256 12.0578685 128.19359975 16.55409237 129.69039822 21.06054783 C130.16412868 22.45756931 130.16412868 22.45756931 130.64742947 23.88281345 C130.9452029 24.77548923 131.24297634 25.66816502 131.54977322 26.58789158 C131.81757595 27.38831882 132.08537868 28.18874607 132.36129665 29.01342869 C132.94039822 31.12304783 132.94039822 31.12304783 132.94039822 34.12304783 C84.76039822 34.12304783 36.58039822 34.12304783 -13.05960178 34.12304783 C-10.80706552 23.98663465 -10.80706552 23.98663465 -9.14944553 19.02929783 C-8.79946507 17.98000095 -8.4494846 16.93070408 -8.08889866 15.84961033 C-7.72860569 14.7848447 -7.36831272 13.72007908 -6.99710178 12.62304783 C-6.63294163 11.5273447 -6.26878147 10.43164158 -5.89358616 9.30273533 C-2.82822127 0.16896785 -2.82822127 0.16896785 0 0 Z " fill="#BCCDD6" transform="translate(196.05960178375244,417.8769521713257)"/>
<path d="M0 0 C12.75918141 6.55263566 31.29673803 20.12259817 36.5 34.0625 C38.98782304 41.89914258 37.39241631 49.19201124 34.5 56.625 C34.21382812 57.39521484 33.92765625 58.16542969 33.6328125 58.95898438 C32.93489595 60.83172713 32.21930677 62.69786847 31.5 64.5625 C26.29345865 62.0642686 21.49312943 59.44028795 16.8125 56.0625 C16.21872559 55.63598145 15.62495117 55.20946289 15.01318359 54.77001953 C8.8780265 50.26159634 3.3373052 45.1808086 -2.12353516 39.88769531 C-3.28674126 38.76781544 -4.47476283 37.67379731 -5.66796875 36.5859375 C-14.41007808 28.40260217 -23.08571435 17.28703616 -28.5 6.5625 C-28.5 5.5725 -28.5 4.5825 -28.5 3.5625 C-19.15087951 -1.07890733 -10.15710848 -3.95303682 0 0 Z " fill="#40E578" transform="translate(150.5,240.4375)"/>
</svg>
